<svg width="24" height="25" viewBox="0 0 24 25" fill="none" xmlns="http://www.w3.org/2000/svg">
<path fill-rule="evenodd" clip-rule="evenodd" d="M0 12.5C0 5.87258 5.37258 0.5 12 0.5C18.6274 0.5 24 5.87258 24 12.5C24 19.1274 18.6274 24.5 12 24.5C5.37258 24.5 0 19.1274 0 12.5ZM6.15 10.475V18.5H8.7V10.475H6.15ZM6 7.925C6 8.75 6.6 9.35 7.425 9.35C8.25 9.35 8.85 8.75 8.85 7.925C8.85 7.1 8.25 6.5 7.425 6.5C6.675 6.5 6 7.1 6 7.925ZM15.45 18.5H17.85V13.55C17.85 11.075 16.35 10.25 14.925 10.25C13.65 10.25 12.75 11.075 12.525 11.6V10.475H10.125V18.5H12.675V14.225C12.675 13.1 13.425 12.5 14.175 12.5C14.925 12.5 15.45 12.875 15.45 14.15V18.5Z" fill="#424242"/>
</svg>
