<svg width="24" height="25" viewBox="0 0 24 25" fill="none" xmlns="http://www.w3.org/2000/svg">
<path fill-rule="evenodd" clip-rule="evenodd" d="M12 24.5C5.37258 24.5 0 19.1274 0 12.5C0 5.87258 5.37258 0.5 12 0.5C18.6274 0.5 24 5.87258 24 12.5C24 19.1274 18.6274 24.5 12 24.5ZM12.5189 9.50553C11.4441 9.95256 9.29616 10.8778 6.07494 12.2812C5.55186 12.4892 5.27785 12.6927 5.25291 12.8917C5.21075 13.228 5.63186 13.3604 6.2053 13.5407C6.28331 13.5652 6.36413 13.5906 6.44699 13.6176C7.01117 13.801 7.77009 14.0155 8.16462 14.024C8.5225 14.0318 8.92193 13.8842 9.36292 13.5814C12.3726 11.5498 13.9262 10.5229 14.0238 10.5008C14.0926 10.4852 14.1879 10.4655 14.2525 10.523C14.3171 10.5804 14.3108 10.6891 14.3039 10.7183C14.2622 10.8962 12.6092 12.4329 11.7538 13.2282C11.4871 13.4762 11.2979 13.652 11.2593 13.6922C11.1726 13.7822 11.0844 13.8673 10.9995 13.9491C10.4754 14.4543 10.0823 14.8332 11.0213 15.452C11.4725 15.7494 11.8336 15.9952 12.1938 16.2405C12.5872 16.5084 12.9795 16.7757 13.4872 17.1084C13.6165 17.1932 13.7401 17.2813 13.8604 17.3671C14.3182 17.6934 14.7295 17.9867 15.2376 17.9399C15.5329 17.9127 15.8379 17.6351 15.9928 16.807C16.3588 14.8501 17.0784 10.6101 17.2447 8.86285C17.2592 8.70977 17.2409 8.51386 17.2262 8.42786C17.2115 8.34186 17.1807 8.21932 17.0689 8.12862C16.9365 8.02119 16.7322 7.99854 16.6407 8.00007C16.2251 8.00747 15.5875 8.22919 12.5189 9.50553Z" fill="#424242"/>
</svg>
