<svg width="24" height="25" viewBox="0 0 24 25" fill="none" xmlns="http://www.w3.org/2000/svg">
<path d="M12 14.6C10.875 14.6 9.9 13.7 9.9 12.5C9.9 11.375 10.8 10.4 12 10.4C13.125 10.4 14.1 11.3 14.1 12.5C14.1 13.625 13.125 14.6 12 14.6Z" fill="#424242"/>
<path fill-rule="evenodd" clip-rule="evenodd" d="M14.55 7.4H9.45C8.85 7.475 8.55 7.55 8.325 7.625C8.025 7.7 7.8 7.85 7.575 8.075C7.39696 8.25304 7.31284 8.43108 7.21116 8.64628C7.18437 8.70299 7.15628 8.76244 7.125 8.825C7.1134 8.85981 7.1 8.89641 7.08564 8.93564C7.00718 9.15 6.9 9.44282 6.9 9.95V15.05C6.975 15.65 7.05 15.95 7.125 16.175C7.2 16.475 7.35 16.7 7.575 16.925C7.75304 17.103 7.93108 17.1872 8.14628 17.2888C8.20304 17.3157 8.26239 17.3437 8.325 17.375C8.35981 17.3866 8.39641 17.4 8.43564 17.4144C8.65 17.4928 8.94282 17.6 9.45 17.6H14.55C15.15 17.525 15.45 17.45 15.675 17.375C15.975 17.3 16.2 17.15 16.425 16.925C16.603 16.747 16.6872 16.5689 16.7888 16.3537C16.8156 16.297 16.8437 16.2376 16.875 16.175C16.8866 16.1402 16.9 16.1036 16.9144 16.0644C16.9928 15.85 17.1 15.5572 17.1 15.05V9.95C17.025 9.35 16.95 9.05 16.875 8.825C16.8 8.525 16.65 8.3 16.425 8.075C16.247 7.89696 16.0689 7.81284 15.8537 7.71116C15.797 7.68439 15.7375 7.65625 15.675 7.625C15.6402 7.6134 15.6036 7.6 15.5644 7.58564C15.35 7.50718 15.0572 7.4 14.55 7.4ZM12 9.275C10.2 9.275 8.775 10.7 8.775 12.5C8.775 14.3 10.2 15.725 12 15.725C13.8 15.725 15.225 14.3 15.225 12.5C15.225 10.7 13.8 9.275 12 9.275ZM16.05 9.2C16.05 9.61421 15.7142 9.95 15.3 9.95C14.8858 9.95 14.55 9.61421 14.55 9.2C14.55 8.78578 14.8858 8.45 15.3 8.45C15.7142 8.45 16.05 8.78578 16.05 9.2Z" fill="#424242"/>
<path fill-rule="evenodd" clip-rule="evenodd" d="M0 12.5C0 5.87258 5.37258 0.5 12 0.5C18.6274 0.5 24 5.87258 24 12.5C24 19.1274 18.6274 24.5 12 24.5C5.37258 24.5 0 19.1274 0 12.5Z" fill="#424242"/>
<path d="M15.6904 6.61084H17.6582L13.359 11.5245L18.4167 18.211H14.4566L11.3549 14.1557L7.80584 18.211H5.83679L10.4352 12.9552L5.58337 6.61084H9.64402L12.4477 10.3175L15.6904 6.61084ZM14.9997 17.0331H16.0901L9.05152 7.72683H7.88139L14.9997 17.0331Z" fill="white"/>
</svg>
