<svg width="24" height="25" viewBox="0 0 24 25" fill="none" xmlns="http://www.w3.org/2000/svg">
<path d="M13.95 12.5L10.8 10.7V14.3L13.95 12.5Z" fill="#424242"/>
<path fill-rule="evenodd" clip-rule="evenodd" d="M0 12.5C0 5.87258 5.37258 0.5 12 0.5C18.6274 0.5 24 5.87258 24 12.5C24 19.1274 18.6274 24.5 12 24.5C5.37258 24.5 0 19.1274 0 12.5ZM16.65 8.525C17.175 8.675 17.55 9.05 17.7 9.575C18 10.55 18 12.5 18 12.5C18 12.5 18 14.45 17.775 15.425C17.625 15.95 17.25 16.325 16.725 16.475C15.75 16.7 12 16.7 12 16.7C12 16.7 8.175 16.7 7.275 16.475C6.75 16.325 6.375 15.95 6.225 15.425C6 14.45 6 12.5 6 12.5C6 12.5 6 10.55 6.15 9.575C6.3 9.05 6.675 8.675 7.2 8.525C8.175 8.3 11.925 8.3 11.925 8.3C11.925 8.3 15.75 8.3 16.65 8.525Z" fill="#424242"/>
</svg>
