<svg width="24" height="22" viewBox="0 0 24 22" fill="none" xmlns="http://www.w3.org/2000/svg">
<path d="M12 18.6667C12.5523 18.6667 13 18.219 13 17.6667C13 17.1145 12.5523 16.6667 12 16.6667V18.6667ZM1.33337 16.6667C0.781089 16.6667 0.333374 17.1145 0.333374 17.6667C0.333374 18.219 0.781089 18.6667 1.33337 18.6667L1.33337 16.6667ZM12 3.33341C11.4478 3.33341 11 3.78113 11 4.33341C11 4.8857 11.4478 5.33341 12 5.33341V3.33341ZM22.6667 5.33342C23.219 5.33342 23.6667 4.8857 23.6667 4.33342C23.6667 3.78113 23.219 3.33342 22.6667 3.33342V5.33342ZM12 17.6667V16.6667L1.33337 16.6667L1.33337 17.6667L1.33337 18.6667H12V17.6667ZM12 4.33341V5.33341L22.6667 5.33342V4.33342V3.33342L12 3.33341V4.33341ZM1.33337 4.33341H0.333374C0.333374 6.35846 1.975 8.00008 4.00004 8.00008V7.00008V6.00008C3.07957 6.00008 2.33337 5.25389 2.33337 4.33341H1.33337ZM4.00004 7.00008V8.00008C6.02508 8.00008 7.66671 6.35846 7.66671 4.33341H6.66671H5.66671C5.66671 5.25389 4.92052 6.00008 4.00004 6.00008V7.00008ZM6.66671 4.33341H7.66671C7.66671 2.30837 6.02508 0.666748 4.00004 0.666748V1.66675V2.66675C4.92052 2.66675 5.66671 3.41294 5.66671 4.33341H6.66671ZM4.00004 1.66675V0.666748C1.975 0.666748 0.333374 2.30837 0.333374 4.33341H1.33337H2.33337C2.33337 3.41294 3.07957 2.66675 4.00004 2.66675V1.66675ZM22.6667 17.6667H23.6667C23.6667 15.6417 22.0251 14.0001 20 14.0001V15.0001V16.0001C20.9205 16.0001 21.6667 16.7463 21.6667 17.6667H22.6667ZM20 15.0001V14.0001C17.975 14.0001 16.3334 15.6417 16.3334 17.6667H17.3334H18.3334C18.3334 16.7463 19.0796 16.0001 20 16.0001V15.0001ZM17.3334 17.6667H16.3334C16.3334 19.6918 17.975 21.3334 20 21.3334V20.3334V19.3334C19.0796 19.3334 18.3334 18.5872 18.3334 17.6667H17.3334ZM20 20.3334V21.3334C22.0251 21.3334 23.6667 19.6918 23.6667 17.6667H22.6667H21.6667C21.6667 18.5872 20.9205 19.3334 20 19.3334V20.3334Z" fill="#9D85FF"/>
</svg>
