<svg width="32" height="23" viewBox="0 0 32 23" fill="none" xmlns="http://www.w3.org/2000/svg">
<path d="M20 5.33325H19C19 6.99011 17.6569 8.33325 16 8.33325V9.33325V10.3333C18.7614 10.3333 21 8.09468 21 5.33325H20ZM16 9.33325V8.33325C14.3431 8.33325 13 6.99011 13 5.33325H12H11C11 8.09468 13.2386 10.3333 16 10.3333V9.33325ZM12 5.33325H13C13 3.6764 14.3431 2.33325 16 2.33325V1.33325V0.333252C13.2386 0.333252 11 2.57183 11 5.33325H12ZM16 1.33325V2.33325C17.6569 2.33325 19 3.6764 19 5.33325H20H21C21 2.57183 18.7614 0.333252 16 0.333252V1.33325ZM12 13.3333V14.3333H20V13.3333V12.3333H12V13.3333ZM20 21.3333V20.3333H12V21.3333V22.3333H20V21.3333ZM12 21.3333V20.3333C10.3431 20.3333 9 18.9901 9 17.3333H8H7C7 20.0947 9.23858 22.3333 12 22.3333V21.3333ZM24 17.3333H23C23 18.9901 21.6569 20.3333 20 20.3333V21.3333V22.3333C22.7614 22.3333 25 20.0947 25 17.3333H24ZM20 13.3333V14.3333C21.6569 14.3333 23 15.6764 23 17.3333H24H25C25 14.5718 22.7614 12.3333 20 12.3333V13.3333ZM12 13.3333V12.3333C9.23858 12.3333 7 14.5718 7 17.3333H8H9C9 15.6764 10.3431 14.3333 12 14.3333V13.3333Z" fill="#9D85FF"/>
<path d="M10.3362 8.85146C10.1259 8.51361 9.73132 8.33325 9.33337 8.33325C7.67652 8.33325 6.33337 6.99011 6.33337 5.33325C6.33337 3.6764 7.67652 2.33325 9.33337 2.33325C9.73132 2.33325 10.1259 2.15289 10.3362 1.81505C10.3455 1.80011 10.3549 1.7852 10.3643 1.77034C10.7144 1.21766 10.537 0.435119 9.88671 0.363523C9.70502 0.34352 9.5204 0.333252 9.33337 0.333252C6.57195 0.333252 4.33337 2.57183 4.33337 5.33325C4.33337 8.09468 6.57195 10.3333 9.33337 10.3333C9.5204 10.3333 9.70502 10.323 9.88671 10.303C10.537 10.2314 10.7144 9.44884 10.3643 8.89616C10.3549 8.8813 10.3455 8.8664 10.3362 8.85146Z" fill="#9D85FF"/>
<path d="M6.27776 19.4224C6.1264 19.1699 5.85923 18.9999 5.56482 18.9999H5.33337C3.67652 18.9999 2.33337 17.6568 2.33337 15.9999C2.33337 14.3431 3.67652 12.9999 5.33337 12.9999H5.56482C5.85923 12.9999 6.1264 12.8299 6.27776 12.5774C6.64723 11.961 6.24629 10.9999 5.52763 10.9999H5.33337C2.57195 10.9999 0.333374 13.2385 0.333374 15.9999C0.333374 18.7613 2.57195 20.9999 5.33337 20.9999H5.52763C6.24629 20.9999 6.64723 20.0388 6.27776 19.4224Z" fill="#9D85FF"/>
<path d="M21.6358 8.89616C21.2856 9.44884 21.463 10.2314 22.1134 10.303C22.2951 10.323 22.4797 10.3333 22.6667 10.3333C25.4281 10.3333 27.6667 8.09468 27.6667 5.33325C27.6667 2.57183 25.4281 0.333252 22.6667 0.333252C22.4797 0.333252 22.2951 0.34352 22.1134 0.363523C21.463 0.43512 21.2856 1.21766 21.6358 1.77034C21.6452 1.7852 21.6546 1.8001 21.6639 1.81504C21.8742 2.15288 22.2688 2.33325 22.6667 2.33325C24.3236 2.33325 25.6667 3.6764 25.6667 5.33325C25.6667 6.99011 24.3236 8.33325 22.6667 8.33325C22.2688 8.33325 21.8742 8.51362 21.6639 8.85146C21.6546 8.8664 21.6452 8.8813 21.6358 8.89616Z" fill="#9D85FF"/>
<path d="M25.7223 19.4224C25.3529 20.0388 25.7538 20.9999 26.4725 20.9999H26.6667C29.4281 20.9999 31.6667 18.7613 31.6667 15.9999C31.6667 13.2385 29.4281 10.9999 26.6667 10.9999H26.4725C25.7538 10.9999 25.3529 11.961 25.7223 12.5774C25.8737 12.8299 26.1408 12.9999 26.4353 12.9999H26.6667C28.3236 12.9999 29.6667 14.3431 29.6667 15.9999C29.6667 17.6568 28.3236 18.9999 26.6667 18.9999H26.4353C26.1408 18.9999 25.8737 19.1699 25.7223 19.4224Z" fill="#9D85FF"/>
</svg>
