<svg width="65" height="64" viewBox="0 0 65 64" fill="none" xmlns="http://www.w3.org/2000/svg">
<path d="M3.19816 30.0676L22.9447 22.8798L30.1278 3.13798C30.2925 2.68573 30.5923 2.29509 30.9866 2.01906C31.3809 1.74303 31.8505 1.59497 32.3318 1.59497C32.8131 1.59497 33.2828 1.74303 33.677 2.01906C34.0713 2.29509 34.3711 2.68573 34.5358 3.13798L41.7237 22.8845L61.4702 30.0676C61.9224 30.2323 62.3131 30.5321 62.5891 30.9264C62.8651 31.3207 63.0132 31.7903 63.0132 32.2716C63.0132 32.7529 62.8651 33.2226 62.5891 33.6169C62.3131 34.0111 61.9224 34.311 61.4702 34.4756L41.7189 41.6635L34.5358 61.41C34.3711 61.8622 34.0713 62.2529 33.677 62.5289C33.2828 62.8049 32.8131 62.953 32.3318 62.953C31.8505 62.953 31.3809 62.8049 30.9866 62.5289C30.5923 62.2529 30.2925 61.8622 30.1278 61.41L22.9399 41.6588L3.19816 34.4756C2.74591 34.311 2.35527 34.0111 2.07924 33.6169C1.80321 33.2226 1.65515 32.7529 1.65515 32.2716C1.65515 31.7903 1.80321 31.3207 2.07924 30.9264C2.35527 30.5321 2.74591 30.2323 3.19816 30.0676Z" stroke="white" stroke-opacity="0.5" stroke-width="2" stroke-linecap="round" stroke-linejoin="round"/>
</svg>
