<svg width="51" height="51" viewBox="0 0 51 51" fill="none" xmlns="http://www.w3.org/2000/svg">
<path d="M2.29139 23.6605L18.007 17.9399L23.7239 2.22803C23.8549 1.8681 24.0936 1.55721 24.4074 1.33752C24.7211 1.11784 25.0949 1 25.478 1C25.861 1 26.2348 1.11784 26.5486 1.33752C26.8624 1.55721 27.101 1.8681 27.2321 2.22803L32.9527 17.9437L48.6683 23.6605C49.0283 23.7916 49.3392 24.0302 49.5588 24.344C49.7785 24.6578 49.8964 25.0316 49.8964 25.4146C49.8964 25.7977 49.7785 26.1715 49.5588 26.4853C49.3392 26.799 49.0283 27.0377 48.6683 27.1687L32.9489 32.8893L27.2321 48.605C27.101 48.9649 26.8624 49.2758 26.5486 49.4955C26.2348 49.7152 25.861 49.833 25.478 49.833C25.0949 49.833 24.7211 49.7152 24.4074 49.4955C24.0936 49.2758 23.8549 48.9649 23.7239 48.605L18.0033 32.8856L2.29139 27.1687C1.93146 27.0377 1.62056 26.799 1.40088 26.4853C1.18119 26.1715 1.06335 25.7977 1.06335 25.4146C1.06335 25.0316 1.18119 24.6578 1.40088 24.344C1.62056 24.0302 1.93146 23.7916 2.29139 23.6605Z" stroke="white" stroke-opacity="0.5" stroke-width="1.59174" stroke-linecap="round" stroke-linejoin="round"/>
</svg>
