<svg width="32" height="32" viewBox="0 0 32 32" fill="none" xmlns="http://www.w3.org/2000/svg">
<path d="M21.3333 12.0003L16.7152 17.542C15.7658 18.6812 15.2911 19.2509 14.6666 19.2509C14.0421 19.2509 13.5674 18.6812 12.618 17.542L10.6666 15.2003M7.45972 6.69225C9.52339 7.20954 11.6252 5.99604 12.2091 3.9502C13.2975 0.136392 18.7024 0.136392 19.7908 3.9502C20.3747 5.99604 22.4765 7.20954 24.5402 6.69225C28.3873 5.72794 31.0897 10.4087 28.3311 13.2582C26.8512 14.7868 26.8512 17.2138 28.3311 18.7423C31.0897 21.5918 28.3873 26.2726 24.5402 25.3083C22.4765 24.791 20.3747 26.0045 19.7908 28.0504C18.7024 31.8642 13.2975 31.8642 12.2091 28.0504C11.6252 26.0045 9.52339 24.791 7.45972 25.3083C3.61266 26.2726 0.910203 21.5918 3.66885 18.7423C5.14867 17.2138 5.14867 14.7868 3.66885 13.2582C0.910203 10.4087 3.61266 5.72794 7.45972 6.69225Z" stroke="#9D85FF" stroke-width="2" stroke-linecap="round"/>
</svg>
