<svg width="26" height="26" viewBox="0 0 26 26" fill="none" xmlns="http://www.w3.org/2000/svg">
<path d="M8.2 13.0002L7.2 13.0002L8.2 13.0002ZM17.8 13.0002H18.8H17.8ZM13 17.8002V18.8002V17.8002ZM13 10.6002L13 11.6002L13 10.6002ZM15.4833 24.743L15.6892 25.7216L15.4833 24.743ZM10.5167 24.743L10.3108 25.7216L10.5167 24.743ZM1.88633 8.46568L0.960572 8.08756H0.960572L1.88633 8.46568ZM1.25726 15.4835L0.278688 15.6894L1.25726 15.4835ZM10.5167 1.2575L10.3108 0.278932L10.5167 1.2575ZM15.4833 1.2575L15.6892 0.278933L15.4833 1.2575ZM24.017 8.50898L24.3073 9.46593L24.017 8.50898ZM1.98156 8.50854L1.69129 9.46549L1.98156 8.50854ZM24.115 8.46896L23.1891 8.8468C23.7116 10.127 24 11.5287 24 13.0002H25H26C26 11.2652 25.6596 9.60713 25.0409 8.09112L24.115 8.46896ZM25 13.0002H24C24 13.782 23.9186 14.5437 23.7642 15.2776L24.7427 15.4835L25.7213 15.6894C25.9041 14.8209 26 13.9212 26 13.0002H25ZM24.7427 15.4835L23.7642 15.2776C22.8706 19.5243 19.524 22.8708 15.2774 23.7644L15.4833 24.743L15.6892 25.7216C20.7117 24.6647 24.6645 20.712 25.7213 15.6894L24.7427 15.4835ZM15.4833 24.743L15.2774 23.7644C14.5434 23.9188 13.7818 24.0002 13 24.0002V25.0002V26.0002C13.921 26.0002 14.8207 25.9043 15.6892 25.7216L15.4833 24.743ZM13 25.0002V24.0002C12.2182 24.0002 11.4566 23.9188 10.7226 23.7644L10.5167 24.743L10.3108 25.7216C11.1793 25.9043 12.079 26.0002 13 26.0002V25.0002ZM1 13.0002H2C2 11.5276 2.28886 10.1248 2.81209 8.84379L1.88633 8.46568L0.960572 8.08756C0.340982 9.60454 2.98023e-07 11.2638 2.98023e-07 13.0002H1ZM10.5167 24.743L10.7226 23.7644C6.47597 22.8708 3.12941 19.5243 2.23583 15.2776L1.25726 15.4835L0.278688 15.6894C1.33553 20.712 5.28827 24.6647 10.3108 25.7216L10.5167 24.743ZM1.25726 15.4835L2.23583 15.2776C2.0814 14.5437 2 13.782 2 13.0002H1H2.98023e-07C2.98023e-07 13.9212 0.0959299 14.8209 0.278688 15.6894L1.25726 15.4835ZM1.88633 8.46568L2.81209 8.84379C4.17412 5.50907 7.1266 2.99275 10.7226 2.23607L10.5167 1.2575L10.3108 0.278932C6.05527 1.17438 2.56961 4.14807 0.960572 8.08756L1.88633 8.46568ZM10.5167 1.2575L10.7226 2.23607C11.4566 2.08164 12.2182 2.00024 13 2.00024V1.00024V0.0002442C12.079 0.0002442 11.1793 0.096174 10.3108 0.278932L10.5167 1.2575ZM13 1.00024V2.00024C13.7818 2.00024 14.5434 2.08164 15.2774 2.23607L15.4833 1.2575L15.6892 0.278933C14.8207 0.0961744 13.921 0.0002442 13 0.0002442V1.00024ZM15.4833 1.2575L15.2774 2.23607C18.8745 2.99298 21.8277 5.51058 23.1891 8.8468L24.115 8.46896L25.0409 8.09112C23.4325 4.14986 19.946 1.17465 15.6892 0.278933L15.4833 1.2575ZM15.4833 1.2575L14.5306 1.56148C14.8614 2.59833 16.0848 6.58254 16.5859 10.2404L17.5767 10.1047L18.5674 9.96899C18.0415 6.12978 16.7723 2.0076 16.436 0.953526L15.4833 1.2575ZM17.5767 10.1047L16.5859 10.2404C16.7202 11.2203 16.8 12.1593 16.8 13.0002L17.8 13.0002H18.8C18.8 12.041 18.7096 11.0067 18.5674 9.96899L17.5767 10.1047ZM24.017 8.50898L23.7268 7.55202C22.4113 7.95099 19.9418 8.65133 17.3952 9.12132L17.5767 10.1047L17.7582 11.0881C20.4102 10.5987 22.9602 9.87448 24.3073 9.46593L24.017 8.50898ZM17.5767 10.1047L17.3952 9.12132C15.85 9.4065 14.3109 9.60025 13 9.60025V10.6002L13 11.6002C14.4837 11.6002 16.1568 11.3836 17.7582 11.0881L17.5767 10.1047ZM17.8 13.0002L16.8 13.0002C16.8 14.2465 16.6249 15.7001 16.3619 17.1706L17.3463 17.3466L18.3307 17.5226C18.6039 15.9949 18.8 14.4123 18.8 13.0002H17.8ZM17.3463 17.3466L16.3619 17.1706C15.7857 20.3935 14.8172 23.5408 14.5306 24.439L15.4833 24.743L16.436 25.047C16.7309 24.1225 17.7311 20.8762 18.3307 17.5226L17.3463 17.3466ZM24.7427 15.4835L24.4388 14.5309C23.5406 14.8175 20.3932 15.7859 17.1703 16.3622L17.3463 17.3466L17.5223 18.331C20.8759 17.7313 24.1223 16.7312 25.0467 16.4362L24.7427 15.4835ZM17.3463 17.3466L17.1703 16.3622C15.6998 16.6251 14.2463 16.8002 13 16.8002L13 17.8002V18.8002C14.4121 18.8002 15.9947 18.6041 17.5223 18.331L17.3463 17.3466ZM13 17.8002L13 16.8002C11.7537 16.8002 10.3002 16.6251 8.82969 16.3622L8.65368 17.3466L8.47767 18.331C10.0053 18.6041 11.5879 18.8002 13 18.8002V17.8002ZM8.65368 17.3466L8.82969 16.3622C5.60677 15.7859 2.45945 14.8174 1.56124 14.5308L1.25726 15.4835L0.95328 16.4362C1.87773 16.7312 5.12407 17.7313 8.47767 18.331L8.65368 17.3466ZM8.2 13.0002L7.2 13.0002C7.2 14.4123 7.39615 15.9949 7.66929 17.5226L8.65368 17.3466L9.63807 17.1706C9.37514 15.7001 9.2 14.2465 9.2 13.0002H8.2ZM8.65368 17.3466L7.66929 17.5226C8.26891 20.8762 9.26906 24.1225 9.56404 25.047L10.5167 24.743L11.4694 24.439C11.1828 23.5408 10.2143 20.3935 9.63807 17.1706L8.65368 17.3466ZM10.5167 1.2575L9.56404 0.953524C9.22771 2.00759 7.95853 6.12978 7.43258 9.96899L8.42332 10.1047L9.41407 10.2404C9.91518 6.58254 11.1386 2.59833 11.4694 1.56148L10.5167 1.2575ZM8.42332 10.1047L7.43258 9.96899C7.29042 11.0067 7.2 12.041 7.2 13.0002L8.2 13.0002H9.2C9.2 12.1593 9.27984 11.2203 9.41407 10.2404L8.42332 10.1047ZM13 10.6002V9.60025C11.6891 9.60025 10.15 9.4065 8.60482 9.12132L8.42332 10.1047L8.24183 11.0881C9.8432 11.3837 11.5163 11.6002 13 11.6002L13 10.6002ZM8.42332 10.1047L8.60482 9.12132C6.0573 8.65116 3.58688 7.95049 2.27183 7.5516L1.98156 8.50854L1.69129 9.46549C3.03793 9.87396 5.58891 10.5985 8.24183 11.0881L8.42332 10.1047ZM24.115 8.46896L23.6542 7.58147C23.6754 7.57046 23.7001 7.5601 23.7268 7.55202L24.017 8.50898L24.3073 9.46593C24.4021 9.43716 24.4914 9.40032 24.5758 9.35645L24.115 8.46896ZM1.88633 8.46568L1.36461 9.31879C1.46489 9.38012 1.57387 9.42987 1.69129 9.46549L1.98156 8.50854L2.27183 7.5516C2.3218 7.56676 2.3679 7.58801 2.40806 7.61256L1.88633 8.46568Z" fill="#9D85FF"/>
</svg>
