<svg width="20" height="20" viewBox="0 0 20 20" fill="none" xmlns="http://www.w3.org/2000/svg">
<path fill-rule="evenodd" clip-rule="evenodd" d="M10.0453 0.225342C11.8818 0.225334 13.3214 0.225328 14.4635 0.34907C15.6291 0.475348 16.5734 0.737666 17.3798 1.32349C17.8679 1.67815 18.2972 2.10743 18.6518 2.59558C19.2377 3.4019 19.5 4.34628 19.6263 5.51182C19.75 6.65393 19.75 8.09358 19.75 9.93007V10.0207C19.75 11.8572 19.75 13.2968 19.6263 14.4389C19.5 15.6044 19.2377 16.5488 18.6518 17.3551C18.2972 17.8433 17.8679 18.2725 17.3798 18.6272C16.5734 19.213 15.6291 19.4753 14.4635 19.6016C13.3214 19.7254 11.8818 19.7253 10.0453 19.7253H9.95465C8.11817 19.7253 6.67859 19.7254 5.53648 19.6016C4.37094 19.4753 3.42656 19.213 2.62024 18.6272C2.13209 18.2725 1.70281 17.8433 1.34815 17.3551C0.762324 16.5488 0.500006 15.6044 0.373728 14.4389C0.249986 13.2967 0.249992 11.8571 0.25 10.0206V9.93009C0.249992 8.09356 0.249986 6.65395 0.373728 5.51182C0.500006 4.34628 0.762324 3.4019 1.34815 2.59558C1.70281 2.10743 2.13209 1.67815 2.62024 1.32349C3.42656 0.737666 4.37094 0.475348 5.53648 0.34907C6.67861 0.225328 8.11821 0.225334 9.95474 0.225342H10.0453ZM10.75 4.97534C10.75 4.56113 10.4142 4.22534 10 4.22534C9.58579 4.22534 9.25 4.56113 9.25 4.97534V14.9753C9.25 15.3896 9.58579 15.7253 10 15.7253C10.4142 15.7253 10.75 15.3896 10.75 14.9753V4.97534ZM14.75 8.97534C14.75 8.56113 14.4142 8.22534 14 8.22534C13.5858 8.22534 13.25 8.56113 13.25 8.97534V14.9753C13.25 15.3896 13.5858 15.7253 14 15.7253C14.4142 15.7253 14.75 15.3896 14.75 14.9753V8.97534ZM6.75 10.9753C6.75 10.5611 6.41421 10.2253 6 10.2253C5.58579 10.2253 5.25 10.5611 5.25 10.9753V14.9753C5.25 15.3896 5.58579 15.7253 6 15.7253C6.41421 15.7253 6.75 15.3896 6.75 14.9753V10.9753Z" fill="#9D85FF"/>
</svg>
