<svg width="24" height="22" viewBox="0 0 24 22" fill="none" xmlns="http://www.w3.org/2000/svg">
<path d="M15.0336 0.25C16.4053 0.249996 17.4807 0.249992 18.3451 0.320612C19.2252 0.392522 19.9523 0.541379 20.6104 0.876713C21.6924 1.42798 22.572 2.30762 23.1233 3.38955C23.4586 4.04769 23.6075 4.77479 23.6794 5.65494C23.75 6.51924 23.75 7.59466 23.75 8.96628V9.03363C23.75 10.4052 23.75 11.4808 23.6794 12.3451C23.6075 13.2252 23.4586 13.9523 23.1233 14.6104C22.572 15.6924 21.6924 16.572 20.6104 17.1233C19.9523 17.4586 19.2252 17.6075 18.3451 17.6794C17.4808 17.75 16.4053 17.75 15.0337 17.75H12.75V19.584C13.3744 19.6276 13.9959 19.7259 14.6073 19.8787L16.1819 20.2724C16.5837 20.3729 16.8281 20.7801 16.7276 21.1819C16.6271 21.5837 16.2199 21.8281 15.8181 21.7276L14.2435 21.3339C13.507 21.1498 12.7535 21.0578 12 21.0578C11.2465 21.0578 10.493 21.1498 9.75655 21.3339L8.1819 21.7276C7.78006 21.8281 7.37285 21.5837 7.27239 21.1819C7.17193 20.7801 7.41625 20.3729 7.8181 20.2724L9.39274 19.8787C10.0041 19.7259 10.6256 19.6276 11.25 19.584V17.75H8.96637C7.59476 17.75 6.51924 17.75 5.65494 17.6794C4.77479 17.6075 4.04769 17.4586 3.38955 17.1233C2.30762 16.572 1.42798 15.6924 0.876713 14.6104C0.541379 13.9523 0.392522 13.2252 0.320612 12.3451C0.249992 11.4807 0.249996 10.4053 0.25 9.03356V8.96644C0.249996 7.59472 0.249992 6.51929 0.320612 5.65494C0.392522 4.7748 0.541379 4.04769 0.876713 3.38955C1.42798 2.30762 2.30762 1.42798 3.38955 0.876713C4.04769 0.541379 4.77479 0.392522 5.65494 0.320612C6.51929 0.249992 7.59472 0.249996 8.96644 0.25H15.0336Z" fill="#9D85FF"/>
</svg>
