<svg width="20" height="21" viewBox="0 0 20 21" fill="none" xmlns="http://www.w3.org/2000/svg">
<path fill-rule="evenodd" clip-rule="evenodd" d="M9.81153 0.987549H10.1963C14.7152 0.987549 18.5876 4.21932 19.396 8.66542C19.6881 10.2722 18.2846 11.6757 16.6779 11.3835L14.5 10.9875C11.8399 10.5039 9.51635 12.8275 10 15.4875L10.396 17.6654C10.6881 19.2722 9.28462 20.6757 7.67788 20.3835C3.23178 19.5751 0 15.7028 0 11.1838L0 10.7991C0 5.38032 4.39277 0.987549 9.81153 0.987549ZM7 6.98755C7.55228 6.98755 8 6.53983 8 5.98755C8 5.43526 7.55228 4.98755 7 4.98755C6.44772 4.98755 6 5.43526 6 5.98755C6 6.53983 6.44772 6.98755 7 6.98755ZM11 7.98755C11.5523 7.98755 12 7.53983 12 6.98755C12 6.43526 11.5523 5.98755 11 5.98755C10.4477 5.98755 10 6.43526 10 6.98755C10 7.53983 10.4477 7.98755 11 7.98755ZM6 8.98755C6 9.53983 5.55228 9.98755 5 9.98755C4.44772 9.98755 4 9.53983 4 8.98755C4 8.43526 4.44772 7.98755 5 7.98755C5.55228 7.98755 6 8.43526 6 8.98755ZM6 13.9875C6.55228 13.9875 7 13.5398 7 12.9875C7 12.4353 6.55228 11.9875 6 11.9875C5.44772 11.9875 5 12.4353 5 12.9875C5 13.5398 5.44772 13.9875 6 13.9875Z" fill="#9D85FF"/>
</svg>
